<svg width="89" height="80" viewBox="0 0 89 80" fill="none" xmlns="http://www.w3.org/2000/svg">
<path d="M19.7636 62.9479H18.067C15.7669 62.9479 13.8951 64.6304 13.8951 66.6979V67.9479C13.8951 68.6392 14.5167 69.1979 15.2858 69.1979H43.0899C43.8589 69.1979 44.4805 68.6392 44.4805 67.9479V66.6979C44.4805 64.6304 42.6088 62.9479 40.3087 62.9479H38.6121L37.9182 60.4529H54.2038C56.5039 60.4529 58.3757 58.7704 58.3757 56.7029V22.9729C58.3757 20.9054 56.5039 19.2229 54.2038 19.2229H4.17188C1.87178 19.2229 0 20.9054 0 22.9729V56.7029C0 58.7704 1.87178 60.4529 4.17188 60.4529H20.4575L19.7636 62.9479ZM18.067 65.4479H40.3087C41.0763 65.4479 41.6993 66.0079 41.6993 66.6979H16.6764C16.6764 66.0079 17.2994 65.4479 18.067 65.4479V65.4479ZM35.7474 62.9479H22.6283L23.3222 60.4529H35.0535L35.7474 62.9479ZM4.17188 21.7229H54.2052C54.9728 21.7229 55.5958 22.2829 55.5958 22.9729V52.9529H2.78125V22.9729C2.78125 22.2829 3.40425 21.7229 4.17188 21.7229ZM2.78125 56.7029V55.4529H29.2156C28.448 55.4529 27.8334 56.0116 27.8334 56.7029C27.8334 57.3941 28.4619 57.9529 29.2309 57.9529C29.9986 57.9529 30.6216 57.3941 30.6216 56.7029C30.6216 56.0116 29.9986 55.4529 29.2309 55.4529H55.5958V56.7029C55.5958 57.3929 54.9728 57.9529 54.2052 57.9529H29.2295H4.17188C3.40425 57.9529 2.78125 57.3929 2.78125 56.7029Z" fill="white"/>
<path d="M84.8197 19.2229H65.3496C63.0495 19.2229 61.1777 20.9054 61.1777 22.9729V65.4479C61.1777 67.5154 63.0495 69.1979 65.3496 69.1979H84.8197C87.1198 69.1979 88.9916 67.5154 88.9916 65.4479V22.9729C88.9916 20.9042 87.1198 19.2229 84.8197 19.2229V19.2229ZM63.959 26.7179H86.2104V27.9654H63.959V26.7179ZM65.3496 21.7229H84.8197C85.5874 21.7229 86.2104 22.2829 86.2104 22.9729V24.2179H63.959V22.9729C63.959 22.2829 64.582 21.7229 65.3496 21.7229V21.7229ZM84.8197 66.6979H65.3496C64.582 66.6979 63.959 66.1379 63.959 65.4479V30.4654H86.2104V65.4479C86.2104 66.1379 85.5874 66.6979 84.8197 66.6979Z" fill="white"/>
<path d="M75.0854 45.4653C77.3855 45.4653 79.2573 43.7828 79.2573 41.7153C79.2573 39.6478 77.3855 37.9653 75.0854 37.9653C72.7853 37.9653 70.9135 39.6478 70.9135 41.7153C70.9135 43.7828 72.7853 45.4653 75.0854 45.4653ZM75.0854 40.4653C75.853 40.4653 76.476 41.0253 76.476 41.7153C76.476 42.4053 75.853 42.9653 75.0854 42.9653C74.3178 42.9653 73.6948 42.4053 73.6948 41.7153C73.6948 41.0253 74.3178 40.4653 75.0854 40.4653Z" fill="white"/>
<path d="M80.6479 52.968H69.5229C68.7539 52.968 68.1323 53.5268 68.1323 54.218C68.1323 54.9093 68.7539 55.468 69.5229 55.468H80.6479C81.4169 55.468 82.0385 54.9093 82.0385 54.218C82.0385 53.5268 81.4169 52.968 80.6479 52.968Z" fill="white"/>
<path d="M80.6479 56.718H69.5229C68.7539 56.718 68.1323 57.2768 68.1323 57.968C68.1323 58.6593 68.7539 59.218 69.5229 59.218H80.6479C81.4169 59.218 82.0385 58.6593 82.0385 57.968C82.0385 57.2768 81.4169 56.718 80.6479 56.718Z" fill="white"/>
<path d="M80.6479 60.468H69.5229C68.7539 60.468 68.1323 61.0268 68.1323 61.718C68.1323 62.4093 68.7539 62.968 69.5229 62.968H80.6479C81.4169 62.968 82.0385 62.4093 82.0385 61.718C82.0385 61.0268 81.4169 60.468 80.6479 60.468Z" fill="white"/>
</svg>
